<svg width="512" height="512" viewBox="0 0 512 512" fill="none" xmlns="http://www.w3.org/2000/svg">
  <rect width="512" height="512" rx="120" fill="url(#bg)"/>
  <path d="M118 154C118 140.745 128.745 130 142 130H238C247.018 130 255.63 133.818 261.695 140.5L362.695 251.5C370.678 260.273 370.678 273.727 362.695 282.5L261.695 393.5C255.63 400.182 247.018 404 238 404H142C128.745 404 118 393.255 118 380C118 366.745 128.745 356 142 356H227.392L311.122 267.5L227.392 178H142C128.745 178 118 167.255 118 154Z" fill="white"/>
  <path d="M88 210C74.7452 210 64 220.745 64 234C64 247.255 74.7452 258 88 258H188C201.255 258 212 247.255 212 234C212 220.745 201.255 210 188 210H88Z" fill="white" fill-opacity="0.92"/>
  <path d="M88 286C74.7452 286 64 296.745 64 310C64 323.255 74.7452 334 88 334H188C201.255 334 212 323.255 212 310C212 296.745 201.255 286 188 286H88Z" fill="white" fill-opacity="0.78"/>
  <circle cx="388" cy="136" r="28" fill="#FBBF24"/>
  <path d="M388 92V68M388 204V180M344 136H320M456 136H432M357.888 105.888L340.917 88.917M435.083 183.083L418.112 166.112M357.888 166.112L340.917 183.083M435.083 88.917L418.112 105.888" stroke="#FBBF24" stroke-width="16" stroke-linecap="round"/>
  <defs>
    <linearGradient id="bg" x1="54" y1="56" x2="430" y2="470" gradientUnits="userSpaceOnUse">
      <stop stop-color="#4C1D95"/>
      <stop offset="0.55" stop-color="#6D28D9"/>
      <stop offset="1" stop-color="#9333EA"/>
    </linearGradient>
  </defs>
</svg>
